<?xml version="1.0" encoding="utf-8"?>
<!DOCTYPE svg PUBLIC "-//W3C//DTD SVG 1.1//EN" "http://www.w3.org/Graphics/SVG/1.1/DTD/svg11.dtd">
<!--
	Rosace · SVG
	Olivier Lange (https://github.com/olange)
	Drawn with InkPad (https://github.com/sprang/Inkpad)
-->
<svg version="1.1" id="rosace"
	 xmlns="http://www.w3.org/2000/svg" xmlns:xlink="http://www.w3.org/1999/xlink" x="0px" y="0px" width="164.006px"
	 height="476.531px" viewBox="483.73 58.643 164.006 476.531" enable-background="new 483.73 58.643 164.006 476.531"
	 xml:space="preserve">
<path fill="none" stroke="#008900" stroke-width="2" stroke-linecap="round" stroke-linejoin="round" stroke-dasharray="4,4" d="
	M522.708,492.021c-14.305-13.001-9.043-81.787-1.409-87.335C527.702,400.033,536.83,484.961,522.708,492.021z"/>
<path fill="none" stroke="#008900" stroke-width="2" stroke-linecap="round" stroke-linejoin="round" stroke-dasharray="4,4" d="
	M550.401,406.848c9.765-9.592,26.188-25.6,27.839-44.287c2.15-24.358-23.654-24.641-30.726-7.569
	C540.945,370.851,544.341,390.363,550.401,406.848z"/>
<path fill="none" stroke="#008900" stroke-width="2" stroke-linecap="round" stroke-linejoin="round" stroke-dasharray="4,4" d="
	M520.902,389.56c-17.071-11.635-5.639-30.132-3.334-33.383c7.75-10.932,15.596,13.854,11.812,22.96
	C527.934,382.619,523.767,390.834,520.902,389.56z"/>
<path fill="none" stroke="#008900" stroke-width="2" stroke-linecap="round" stroke-linejoin="round" stroke-dasharray="4,4" d="
	M515.851,331.84c0-3.64,2.795-6.59,6.24-6.59c3.446,0,6.24,2.95,6.24,6.59s-2.794,6.59-6.24,6.59
	C518.646,338.429,515.851,335.479,515.851,331.84z"/>
<path fill="none" stroke="#008900" stroke-width="2" stroke-linecap="round" stroke-linejoin="round" stroke-dasharray="4,4" d="
	M500.832,288.96c0-11.203,9.045-20.283,20.203-20.283s20.203,9.08,20.203,20.283s-9.045,20.285-20.203,20.285
	S500.832,300.163,500.832,288.96z"/>
<path fill="none" stroke="#008900" stroke-width="2" stroke-linecap="round" stroke-linejoin="round" stroke-dasharray="4,4" d="
	M537.259,354.65l19.29-22.127l-16.453-23.073l-10.496,8.038l11.252,14.468l-12.765,13.332L537.259,354.65z"/>
<path fill="none" stroke="#008900" stroke-width="2" stroke-linecap="round" stroke-linejoin="round" stroke-dasharray="4,4" d="
	M569.534,332.428c-2.482-7.092-2.995-15.072-2.995-22.595c0-8.35,3.841-15.63,7.874-22.766
	C603.701,235.251,587.666,325.177,569.534,332.428z"/>
<path fill="none" stroke="#008900" stroke-width="2" stroke-linecap="round" stroke-linejoin="round" stroke-dasharray="4,4" d="
	M593.161,265.377c10.413,24.122-5.257,58.147-7.402,64.201c-1.124,3.174,14.125-11.665,16.426-16.65
	c12.083-26.182,2.604-58.83,2.604-58.83S601.318,259.997,593.161,265.377z"/>
<path fill="none" stroke="#008900" stroke-width="2" stroke-linecap="round" stroke-linejoin="round" stroke-dasharray="4,4" d="
	M583.945,264.186c-6.813,5.915-28.277,28.675-22.171,62.722c0.397,2.219-13.432-15.351-8.681-36.795
	c7.016-31.669,26.216-41.715,26.216-41.715S579.744,257.523,583.945,264.186z"/>
<path fill="none" stroke="#008900" stroke-width="2" stroke-linecap="round" stroke-linejoin="round" stroke-dasharray="4,4" d="
	M583.903,227.308c-0.492,5.577,3.951,33.039,6.643,32.23c6.562-1.968,18.863-26.817,18.863-26.817
	C601.044,235.263,590.792,233.623,583.903,227.308z"/>
<path fill="none" stroke="#008900" stroke-width="2" stroke-linecap="round" stroke-linejoin="round" stroke-dasharray="4,4" d="
	M597.558,171.609c4.056-5.951,19.098-21.396,19.297-21.195c1.148,1.148,6.063,28.469,4.753,31.091
	c-0.514,1.026-9.581-7.128-12.168-7.358C607.889,174.007,593.643,176.77,597.558,171.609z"/>
<path fill="none" stroke="#008900" stroke-width="2" stroke-linecap="round" stroke-linejoin="round" stroke-dasharray="4,4" d="
	M582.302,203.754c0-11.655,9.492-21.104,21.201-21.104c11.71,0,21.202,9.449,21.202,21.104c0,11.656-9.492,21.105-21.202,21.105
	C591.794,224.859,582.302,215.41,582.302,203.754z"/>
<path fill="none" stroke="#008900" stroke-width="2" stroke-linecap="round" stroke-linejoin="round" stroke-dasharray="4,4" d="
	M609.722,136.956c0-5.288,4.409-9.574,9.848-9.574s9.847,4.286,9.847,9.574c0,5.287-4.408,9.573-9.847,9.573
	S609.722,142.243,609.722,136.956z"/>
<path fill="none" stroke="#008900" stroke-width="2" stroke-linecap="round" stroke-linejoin="round" stroke-dasharray="4,4" d="
	M613.76,119.003c11.963-4.322,18.587,4.301,18.587,4.301s10.924-14.088,12.658-19.913c10.554-35.46-30.412-41.577-34.821-6.184
	C609.366,103.773,609.933,113.436,613.76,119.003z"/>
<path fill="none" stroke="#008900" stroke-width="2" stroke-linecap="round" stroke-linejoin="round" stroke-dasharray="4,4" d="
	M504.88,517.522c0-9.197,7.495-16.652,16.741-16.652c9.247,0,16.742,7.455,16.742,16.652c0,9.196-7.495,16.652-16.742,16.652
	C512.375,534.175,504.88,526.719,504.88,517.522z"/>
<path fill="none" stroke="#008900" stroke-width="2" stroke-linecap="round" stroke-linejoin="round" stroke-dasharray="4,4" d="
	M526.908,397.166c4.454,8.809,6.949,16.561,9.533,27.225c2.186,9.021,3.96,23.534,3.96,23.534s2.61-8.269,12.533-18.955
	c9.095-9.794,22.551-20.356,22.551-20.356l-2.992-10.259c-10.697,9.162-26.149,21.604-26.149,21.604s-6.991-18.172-9.055-32.517
	C537.289,387.442,531.615,392.304,526.908,397.166z"/>
<path fill="none" stroke="#008900" stroke-width="2" stroke-linecap="round" stroke-linejoin="round" stroke-dasharray="4,4" d="
	M484.73,334.895c8.437,4.018,13.427,7.199,20.619,21.377c0,0,3.809-6.266,9.657-11.405c0,0-8.296-4.912-8.114-14.4
	c0.096-4.95,6.271-11.254,6.271-11.254l-13.244-9.406C498.443,318.609,494.605,326.363,484.73,334.895z"/>
<path fill="none" stroke="#008900" stroke-width="2" stroke-linecap="round" stroke-linejoin="round" stroke-dasharray="4,4" d="
	M508.155,108.249c2.036-2.06,12.345-2.409,18.542-0.292c0,0,6.812-12.899,6.342-28.097c-0.428-13.822-13.749-27.313-27.262-15.981
	C491.302,76.017,504.552,102.431,508.155,108.249z"/>
<path fill="none" stroke="#008900" stroke-width="2" stroke-linecap="round" stroke-linejoin="round" stroke-dasharray="4,4" d="
	M508.862,125.553c0-5.322,4.281-9.638,9.563-9.638c5.283,0,9.565,4.315,9.565,9.638c0,5.321-4.282,9.637-9.565,9.637
	C513.144,135.19,508.862,130.875,508.862,125.553z"/>
<path fill="none" stroke="#008900" stroke-width="2" stroke-linecap="round" stroke-linejoin="round" stroke-dasharray="4,4" d="
	M507.214,164.363c9.623-1.995,23.979,1.362,23.979,1.362c-2.889-12.998-10.893-22.542-11.817-22.406
	C517.705,143.563,507.677,162.323,507.214,164.363z"/>
<path fill="none" stroke="#008900" stroke-width="2" stroke-linecap="round" stroke-linejoin="round" stroke-dasharray="4,4" d="
	M496.731,193.703c0-11.337,9.72-20.528,21.71-20.528s21.711,9.191,21.711,20.528s-9.721,20.527-21.711,20.527
	S496.731,205.04,496.731,193.703z"/>
<path fill="none" stroke="#008900" stroke-width="2" stroke-linecap="round" stroke-linejoin="round" stroke-dasharray="4,4" d="
	M506.977,220.255c0.557,13.524,11.727,29.925,13.803,29.935c2.597,0.013,11.764-14.985,12.272-30.528
	C533.052,219.661,518.953,226.116,506.977,220.255z"/>
</svg>
