<?xml version="1.0" encoding="utf-8"?>
<!DOCTYPE svg PUBLIC "-//W3C//DTD SVG 1.1//EN" "http://www.w3.org/Graphics/SVG/1.1/DTD/svg11.dtd">
<!--
	Colors · SVG
	Olivier Lange (https://github.com/olange)
	Drawn with InkPad (https://github.com/sprang/Inkpad)
-->
<svg version="1.1" xmlns="http://www.w3.org/2000/svg" xmlns:xlink="http://www.w3.org/1999/xlink" x="0px" y="0px"
	 width="329.399px" height="620.705px" viewBox="128.774 79.406 329.399 620.705"
	 enable-background="new 128.774 79.406 329.399 620.705" xml:space="preserve">
<g id="RGB" xmlns:inkpad="http://taptrix.com/inkpad/svg_extensions">
	<path fill="#00FF02" fill-opacity="0.4979" d="M128.774,515.554c0-54.946,48.52-99.488,108.371-99.488
		c59.852,0,108.37,44.542,108.37,99.488c0,54.945-48.518,99.488-108.37,99.488C177.294,615.043,128.774,570.5,128.774,515.554z"/>
	<path fill="#0000FF" fill-opacity="0.5021" d="M192.941,608.907c0-50.371,43.347-91.205,96.817-91.205
		c53.472,0,96.818,40.834,96.818,91.205s-43.346,91.204-96.818,91.204C236.288,700.111,192.941,659.278,192.941,608.907z"/>
	<path fill="#FD0000" fill-opacity="0.4979" d="M247.184,519.226c0-50.371,43.347-91.205,96.817-91.205
		c53.471,0,96.818,40.834,96.818,91.205s-43.348,91.204-96.818,91.204C290.531,610.43,247.184,569.597,247.184,519.226z"/>
</g>
<g id="CMY">
	<path fill="#FD00FF" fill-opacity="0.4979" d="M264.54,176.057c0-50.371,43.346-91.205,96.817-91.205s96.816,40.834,96.816,91.205
		s-43.346,91.205-96.816,91.205S264.54,226.428,264.54,176.057z"/>
	<path fill="#FFFF02" fill-opacity="0.4979" d="M143.679,178.894c0-54.946,48.52-99.488,108.371-99.488
		c59.852,0,108.372,44.542,108.372,99.488c0,54.945-48.52,99.487-108.372,99.487C192.199,278.382,143.679,233.84,143.679,178.894z"
		/>
	<path fill="#0000FF" fill-opacity="0.5021" d="M208.587,287.112c0-50.371,43.346-91.205,96.817-91.205s96.816,40.834,96.816,91.205
		s-43.346,91.204-96.816,91.204S208.587,337.483,208.587,287.112z"/>
</g>
</svg>
