<?xml version="1.0" encoding="utf-8"?>
<!DOCTYPE svg PUBLIC "-//W3C//DTD SVG 1.1//EN" "http://www.w3.org/Graphics/SVG/1.1/DTD/svg11.dtd">
<!--
	Coquelicot · SVG
	Olivier Lange (https://github.com/olange)
	Drawn with InkPad (https://github.com/sprang/Inkpad)
-->
<svg version="1.1" id="coquelicot" xmlns="http://www.w3.org/2000/svg"
		xmlns:xlink="http://www.w3.org/1999/xlink" x="0px" y="0px" width="436.792px" height="274.828px"
		viewBox="22.159 574.965 436.792 274.828" enable-background="new 22.159 574.965 436.792 274.828"
		xml:space="preserve">
	<path fill="none" stroke="#008900" stroke-linecap="round" stroke-linejoin="round" stroke-dasharray="4,3" d="M22.159,814.732
		c10.93-11.396,20.006-24.687,26.81-38.296c5.601-11.202,5.94-28.764,8.459-41.358c1.961-9.8,9.452-19.06,11.28-28.197
		c6.803-34.017,33.264-70.325,58.225-93.521c7.614-7.075,15.781-11.394,24.961-15.984c30.064-15.031,118.84-27.093,157.065-20.623
		c10.06,1.702,48.412,8.453,55.834,12.164c9.229,4.614,42.326,13.658,47.468,18.8c2.503,2.503,8.979,8.163,12.688,9.398
		c8.855,2.952,20.104,10.085,27.618,17.299c6.148,5.901-10.573,4.181-13.278,7.868c-1.663,2.271,3.32,5.581,1.64,7.262
		c-1.812,1.812-6.058,5.786-4.589,8.722c1.101,2.203,11.753,2.823,11.009,7.286c-1.366,8.193,16.489,12.77,10.29,19.217
		c-3.783,3.934-6.819,6.199-10.538,12.15c-2.81,4.493-12.172,1.854-16.041,7.612c-3.435,5.111-6.566,4.452-9.697,7.912
		c-3.876,4.284-7.693,11.236-11.469,13.123c-5.541,2.771-16.789-1.409-21.487,3.289c-6.577,6.577-0.173,24.753-10.744,30.038
		c-4.633,2.316-8.994,5.449-13.812,6.577c-14.008,3.28-14.538-4.938-20.636-1.757c-6.977,3.64-8.201-2.73-10.605,7.953
		c-2.386,10.605,1.919,37.809-24.391,50.904c-11.694,5.82-33.997-4.324-48.253,2.121c-4.825,2.181-5.081,6.146-8.208,8.368
		c-3.379,2.402-5.697-0.978-12.918,4.944c-7.79,6.389-12.512-12.309-22.089-7.521c-6.023,3.012,0.985,14.621-12.689,18.799
		c-9.085,2.776-17.264-6.454-22.089-11.278c-0.062-0.064-7.79,6.841-12.277,6.595c-24.412-1.337-16.548-21.128-24.811-6.795
		c-4.5,7.807-16.232,3.747-21.189-1.21c-1.088-1.088-1.614-4.436-2.819-5.641c-0.991-0.99-11.54,6.334-13.088,6.851
		c-17.695,5.897-41.682-0.144-50.896-14.434c-2.92,2.056-13.538,9.967-21.247,2.445C26.808,827.508,22.892,824.242,22.159,814.732z"
		/>
	<path fill="none" stroke="#008900" stroke-linecap="round" stroke-linejoin="round" stroke-dasharray="4,3" d="M178.472,593.415
		c-20.916,25.933-33.87,50.902-39.344,83.745c-1.944,11.668-3.036,24.145-2.248,35.973c0.558,8.362,2.73,16.393,3.372,24.729
		c1.335,17.355,4.359,29.688,20.796,32.036c6.482,0.927,12.712,3.993,19.11,5.059c11.382,1.897,15.421-9.15,31.475-1.123
		c12.754,6.377,54.9,15.144,67.446,6.182c20.661-14.759,14.273-32.259,19.108-37.095c0.963-0.964,5.038,10.637,5.621,11.803
		c1.898,3.8,17.094-1.233,20.795,0c8.077,2.691,4.866,10.117,15.738,10.117"/>
	<path fill="none" stroke="#008900" stroke-linecap="round" stroke-linejoin="round" stroke-dasharray="4,3" d="M246.29,783.128
		c-4.737,18.493-11.65,17.166-21.427,17.591c-4.962,12.404-23.676,21.58-42.175,9.247c-2.508-1.672-13.751-17.025-17.366-15.787
		c-0.051,0.017,12.762,22.823,1.805,19.17c-5.611-1.87-5.446-5.477-10.575-8.04c-1.364-0.682-6.399,0.346-7.307-0.562
		c-1.802-1.802-0.853-8.176-1.687-10.679c-1.849-5.548-6.802-9.899-7.869-16.3c-6.173-37.037-17.929-76.214-3.934-113.534
		c11.107-29.621,26.66-50.476,42.833-70.787"/>
	<path fill="none" stroke="#008900" stroke-linecap="round" stroke-linejoin="round" stroke-dasharray="4,3" d="M212.81,583.268
		c36.584-1.667,65.757-0.821,100.924,10.902c18.113,6.036,33.417,17.27,51.394,23.262c10.986,3.662,22.339,5.282,32.459,8.655
		c13.544,4.515,20.253,27.746,38.408,31.377"/>
	<path fill="none" stroke="#008900" stroke-linecap="round" stroke-linejoin="round" stroke-dasharray="4,3" d="M308.865,733.742
		c-34.613-14.092-34.508-83.194-51.393-100.081c-10.252-10.252-21.056-20.091-32.459-29.213
		c-10.251-8.201-17.597-9.094-28.672-13.523"/>
</svg>
