<?xml version="1.0" encoding="utf-8"?>
<!DOCTYPE svg PUBLIC "-//W3C//DTD SVG 1.1//EN" "http://www.w3.org/Graphics/SVG/1.1/DTD/svg11.dtd">
<!--
	Figure tombante · SVG
	Olivier Lange (https://github.com/olange)
	Drawn with InkPad (https://github.com/sprang/Inkpad)
-->
<svg version="1.1" id="figure-tombante"
	 xmlns="http://www.w3.org/2000/svg" xmlns:xlink="http://www.w3.org/1999/xlink" x="0px" y="0px" width="1074.562px"
	 height="1994.986px" viewBox="294.08 132.454 1074.562 1994.986" enable-background="new 294.08 132.454 1074.562 1994.986"
	 xml:space="preserve">
<path fill="none" stroke="#008900" stroke-width="4" stroke-linejoin="round" stroke-dasharray="4,3" d="M294.08,578.881
	c56.399,0,32.199-39.86,38.88-43.2c0.339-0.17,161.164-19.661,172.8-21.601c126.046-21.008,167.369-55.604,272.16-108
	c28.999-14.5,56.05-48.572,86.4-56.16c16.813-4.203,34.98-4.425,51.84-8.64c3.878-0.97,15.919-10.001,17.28-8.64
	c4.836,4.836-0.904,46.417,0,51.84c9.722,58.331,33.205,121.219,51.84,177.12c33.59,100.764,128.62,171.122,151.199,276.479
	c18.73,87.42-2.92,179.78,12.961,259.2c2.06,10.311,6.899,21.65,4.319,34.561c-16.56,82.81-38.88,155.739-38.88,241.92
	c0,53.42-14.08,130.84,4.32,181.439c18.06,49.67,62.82,79.101,99.359,112.32c57.83,52.57,119.33,174.93,138.24,250.56
	c7.62,30.461,12.141,72.181,8.641,103.681c-3.66,32.97-29.57,103.68-30.24,103.68"/>
<path fill="none" stroke="#008900" stroke-width="4" stroke-linejoin="round" stroke-dasharray="4,3" d="M943.146,271.412
	c-12.686-9.515-53.16-2.708-58.843-14.071c-3.479-6.959,14.486-45.169,17.909-53.725c1.562-3.906,54.29-63.201,55.543-63.828
	c15.054-7.526,41.344-7.413,54.465,2.428c38.971,29.229,46.91,32.396,15.351,63.958c-12.341,12.345-20.28,27.384-35.817,37.097
	c-30.296,18.935-69.013,34.729-46.086,80.584c38.436,57.654,99.873,116.922,145.573,169.159c24.97,28.531,43.14,62.797,68.51,91.336
	c28.47,32.027,61.54,61.972,83.72,98.946c19.96,33.262,18.19,84.608,22.83,121.78c7.91,63.255,8.84,182.811-11.41,243.564
	c-8.84,26.52-15.22,51.53-15.22,79.92c0,5.6,0,40.75,0,22.83"/>
</svg>
