<?xml version="1.0" encoding="utf-8"?>
<!DOCTYPE svg PUBLIC "-//W3C//DTD SVG 1.1//EN" "http://www.w3.org/Graphics/SVG/1.1/DTD/svg11.dtd">
<!--
	Tulipe · SVG
	Olivier Lange (https://github.com/olange)
	Drawn with InkPad (https://github.com/sprang/Inkpad)
-->
<svg version="1.1" id="tulipe" xmlns="http://www.w3.org/2000/svg"
		xmlns:xlink="http://www.w3.org/1999/xlink"  xml:space="preserve"
		x="0px" y="0px" width="1200.717px" height="1533.771px"
		viewBox="177.023 522.228 1200.717 1533.771"
		enable-background="new 177.023 522.228 1200.717 1533.771">
	<path fill="none" stroke="#008900" stroke-width="4" stroke-linejoin="round" d="M653.157,2055.65
		c0-77.979-16.896-182.14-8.18-260.59c5.63-50.67-1.393-91.91,5.843-142.57c3.469-24.279,6.563-50.67,6.563-74.38"/>
	<path fill="none" stroke="#008900" stroke-width="4" stroke-linejoin="round" d="M706.912,2055.65
		c0-74.62-5.692-156.37-5.692-231.32c0-20.05-0.642-76.08,2.187-95.88c5.687-39.8,1.282-47.47,8.813-85.12
		c1.164-5.83,3.438-53.319,5.923-57.489"/>
	<path fill="none" stroke="#008900" stroke-width="6.8564" stroke-linejoin="round" stroke-dasharray="4,3" d="M562.496,1410.6
		c6.718,33.58,26.03,57.1,38.625,104.96c1.614,6.13,14.318,24.689,18.473,30.22c34.68,46.24,58.977,33.351,114.072,42.53
		c35.594,5.93,80.752-0.3,105.354-24.9c11.413-11.41,35.127-12.14,47.887-24.899c50.289-50.29,101.659-180.33,134.083-245.19
		c11.78-23.56,50.011-63.41,68.96-82.37c21.771-21.77,102.63-79.29,130.26-86.189c49.91-12.48,62.74-43.34,99.91-84.851
		c16.48-18.39,59.561-56.413,57.16-58.817c-2.39-2.387-39.87,11.741-42.91,11.741c-16.949,0-31.899-6.063-48.319-3.717
		c-5.44,0.776-7.431-19.823-9.91-10.531c-5.86,21.965-41.15,8.619-65.67,3.717c-24.511-4.903-49.72,2.337-74.55-1.21
		c-53.211-7.603-117.04-34.908-172.393-21.071c-29.332,7.334-54.886,26.319-78.536,44.059c-12.771,9.58-29.275,13.341-42.141,22.98
		c-62.646,46.99-97.307,112.33-151.885,167.74c-30.755,31.229-45.82,59.01-57.099,104.12
		C621.593,1348.03,550.441,1350.32,562.496,1410.6z"/>
	<path fill="none" stroke="#008900" stroke-width="6.8564" stroke-linejoin="round" stroke-dasharray="4,3" d="M923.78,1489.93
		c36.522-33.67,80.3-58.431,86.74-68.48c14.27-22.26,48.86-26.72,64.11-49.59c11.189-16.79,45.34-72.479,61.29-80.45
		c34.68-17.34,78.55-22.729,102.85-59.18c20.4-30.6,18.3-121.21,36.13-139.04"/>
	<path fill="none" stroke="#008900" stroke-width="6.8564" stroke-linejoin="round" stroke-dasharray="4,3" d="M1072.949,966.195
		c-20.189-10.094-30.21-49.386-23.26-70.239c10.25-30.749,42.16-49.981,60.75-74.771c12.28-16.368,33.44-73.896,44.4-95.802
		c2.22-4.449,7.869-6.316,10.899-9.347c0.181-0.184,0-0.519,0-0.778c0-16.181,7.33-21.669,14.021-35.05
		c0.399-0.793,7.13-6.115,5.449-7.788c-2.909-2.916-39.819,8.235-49.84,6.23c-23.34-4.667-54.05-12.161-70.1,3.896
		c-7.32,7.318,0.2,30.757-8.57,36.605c-8.41,5.608-34.189-7.086-39.72-1.557c-4.52,4.513-1.76,12.854-4.68,18.692
		c-0.78,1.562-11.69,4.704-16.353,18.693c-2.964,8.889,1.547,126.156,5.452,133.965c3.7,7.395,5.45,24.758,5.45,33.492
		c0,2.29,2.229,28.039,0,28.039"/>
	<path fill="none" stroke="#008900" stroke-width="6.8564" stroke-linejoin="round" stroke-dasharray="4,3" d="M1108.88,959.046
		c0-15.901,9.479-30.193,14.8-44.396c6.09-16.227,10.17-33.569,17.92-49.069c19.99-39.988,57.63-74.822,57.63-122.282
		c0-9.659,4.84-20.387,2.34-30.375c-1.76-7.055-11.09-44.396-14.8-44.396"/>
	<path fill="none" stroke="#008900" stroke-width="6.8564" stroke-linejoin="round" stroke-dasharray="4,3" d="M1156.579,977.967
		c0-34.162,3.71-71.2,3.71-104.598c0-9.951-1.56-19.065-1.56-28.817c0-1.039,0.44-1.559-0.78-1.559"/>
	<path fill="none" stroke="#008900" stroke-width="6.8564" stroke-linejoin="round" stroke-dasharray="4,3" d="M605.877,1532.45
		c-29.182,0-68.475,6.021-93.229-10.479c-62.276-41.521-33.938-45.3-64.095-95.561c-20.124-33.54-35.974-69.279-55.938-102.56
		c-6.589-10.98-8.383-23.21-16.314-33.79c-20.103-26.8-43.103-47.76-65.262-69.92c-0.453-0.46,19.304-30.641,19.304-31.35
		c0-9.131,9.589-28.771,7.791-42.551c-5.263-40.34-18.812-96.229-28.17-133.66c-3.692-14.768-2.42-25.244-2.42-40.666
		c0-24.564,21.082-54.458,12.818-79.244c-8.382-25.147-27.201-42.097-41.952-61.765c-15.681-20.907-33.187-49.751-43.118-74.583
		c-10.602-26.5-10.926-91.92-17.481-124.693c-2.64-13.2-40.562-57.965-40.834-58.305c-9.36-11.667,12.982,8.31,15.196,10.524
		c4.176,4.175,10.062,7.436,15.149,10.488c15.479,9.286,27.869,30.274,46.614,34.961c10.116,2.528,22.341,4.598,32.713,7.19
		c3.998,1,18.015,20.473,44.201,20.778c8.1,0.094,9.335,10.988,17.214,13.614c8.556,2.853,18.729,9.363,26.203,13.102
		c12.473,6.237,34.835,12.79,39.306,26.204c3.902,11.708,50.975,51.56,42.597,76.695"/>
	<path fill="none" stroke="#008900" stroke-width="6.8564" stroke-linejoin="round" stroke-dasharray="4,3" d="M308.71,968.419
		c-6.341,0-12.902-28.176-15.15-33.796c-7.38-18.448-21.904-33.082-27.969-51.276c-5.593-16.778-20.265-37.681-23.307-55.938
		c-8.226-49.349-13.481-98.868-23.309-148.001c-4.175-20.879-20.692-36.443-26.803-54.771c-2.64-7.922-10.815-48.107-15.15-52.442"/>
	<path fill="none" stroke="#008900" stroke-width="6.8564" stroke-linejoin="round" stroke-dasharray="4,3" d="M593.058,1511.48
		c-23.675,0-123.528-80.63-123.528-103.72"/>
	<path fill="none" stroke="#008900" stroke-width="6.8564" stroke-linejoin="round" stroke-dasharray="4,3" d="M493.141,1471.86
		c-51.023-68.04-66.883-298.24-83.906-391.569c-13.539-74.221-92.782-107.932-92.782-143.125"/>
	<path fill="none" stroke="#008900" stroke-width="6.8564" stroke-linejoin="round" stroke-dasharray="4,3" d="M339.623,1140.76
		c0-35.511,2.699-71.46,2.699-107.431c0-11.02-3.946-43.15,4.277-51.374"/>
	<path fill="none" stroke="#008900" stroke-width="6.8564" stroke-linejoin="round" stroke-dasharray="4,3" d="M409.034,1030.16
		c0-32.065,6.291-57.189,14.092-88.387c18.569-74.282,13.555-184.833,92.229-224.171c12.64-6.32,23.242,3.294,32.024,7.686
		c6.457,3.229,17.434-2.302,24.339,0c5.963,1.987,33.038,26.385,49.958,32.024c26.952,8.984,53.024,16.711,76.858,34.586
		c5.488,4.117,62.7,62.027,66.61,67.892c6.979,10.47,8.339,24.037,15.372,34.587c24.679,37.018,58.925,89.945,58.925,131.943"/>
	<path fill="none" stroke="#008900" stroke-width="6.8564" stroke-linejoin="round" stroke-dasharray="4,3" d="M867.569,1009.52
		c0-29.706,8.032-68.211,12.865-97.21c3.348-20.084-1.418-41.588,2.562-61.487c3.183-15.911,17.804-28.938,21.777-44.834
		c5.682-22.728,11.109-59.32,5.124-83.263c-10.368-41.474-42.388-86.611-70.454-121.693c-6.965-8.707-65.364-78.104-79.421-64.049
		c-2.343,2.343-0.997,11.245-3.842,14.091c-4.238,4.237-22.802-0.598-29.463,3.844c-32.147,21.431-57.566,49.899-88.388,73.015
		c-18.254,13.689-103.166,72.78-103.166,91.923"/>
	<path fill="none" stroke="#008900" stroke-width="6.8564" stroke-linejoin="round" stroke-dasharray="4,3" d="M681.883,761.155
		c0-43.283,8.549-212.642,71.734-212.642"/>
	<path fill="none" stroke="#008900" stroke-width="6.8564" stroke-linejoin="round" stroke-dasharray="4,3" d="M711.345,782.931
		c0-45.778-2.383-145.284,11.528-187.022c3.625-10.876,13.899-51.238,30.744-51.238"/>
	<path fill="none" stroke="#008900" stroke-width="6.8564" stroke-linejoin="round" stroke-dasharray="4,3" d="M654.982,743.221
		c0-47.534,15.372-93.977,15.372-140.907"/>
	<path fill="none" stroke="#008900" stroke-width="6.8564" stroke-linejoin="round" stroke-dasharray="4,3" d="M589.653,1496.44
		c-4.995-14.99-14.486-21.74-23.058-34.59c-23.54-35.31-27.922-83.23-32.024-124.26c-9.217-92.16,30.63-181.521,19.214-272.841
		c-14.524-116.204-53.76-212.729,2.562-325.371"/>
	<path fill="none" stroke="#008900" stroke-width="6.8564" stroke-linejoin="round" stroke-dasharray="4,3" d="M491.017,1176.19
		c0-49.67,16.653-97.26,16.653-147.31c0-61.541-16.694-127.849-6.405-189.586c4.136-24.812,51.239-94.221,51.239-103.76"/>
	<path fill="none" stroke="#008900" stroke-width="6.8564" stroke-linejoin="round" stroke-dasharray="4,3" d="M579.405,1272.26
		c0-60.92,9.532-153.59,1.281-211.36c-8.982-62.868-30.744-120.45-30.744-185.738c0-29.527-7.795-116.46,12.811-137.064"/>
	<path fill="none" stroke="#008900" stroke-width="6.8564" stroke-linejoin="round" stroke-dasharray="4,3" d="M1023.64,671.997
		c11.41-34.207,20.1-72.714,39.319-103.467c2.541-4.066,8.801-26.211,15.181-26.211"/>
	<path fill="none" stroke="#008900" stroke-width="6.8564" stroke-linejoin="round" stroke-dasharray="4,3" d="M902.933,843.062
		c17.636-52.911,49.74-99.481,74.495-148.992c13.545-27.09,31.132-69.888,47.502-93.767c11.35-16.565,26.029-37.025,44.81-50.708"/>
	<path fill="none" stroke="#008900" stroke-width="6.8564" stroke-linejoin="round" stroke-dasharray="4,3" d="M1120.18,675.964
		c0-6.101-6-17.443-8.05-23.61c-2.921-8.755,17.71-24.684,6.97-30.586c-1-0.552-10.311-4.411-11.8-5.098
		c-17.44-8.05-7.181-23.743-16.641-42.659c-3.479-6.977-2.95-14.488-4.56-24.147c-0.58-3.521-3.76-8.302-2.141-11.537
		c0.2-0.398,3.75-16.098,3.221-16.098c-1.74,0-22.601,24.288-26.83,26.83c-24.85,14.907-57.26,20.782-80.271,38.04
		c-11.443,8.583-29.679,30.854-43.398,35.428c-9.692,3.231-61.158,16.108-61.158,29.124"/>
	<path fill="none" stroke="#008900" stroke-width="6.8564" stroke-linejoin="round" stroke-dasharray="4,3" d="M742.715,1555.711
		c65.412-39.24,79.397-117.82,111.021-181.07c23.78-47.561,52.249-97.18,89.875-134.811c40.034-40.029,107.519-54.76,158.608-76.659
		c32.53-13.94,89.43-48.971,116.3-71.37c27.29-22.74,48.85-50.44,76.66-72.69c23.859-19.09,71.109-16.97,82.56-39.876"/>
	<path fill="none" stroke="#008900" stroke-width="6.8564" stroke-linejoin="round" stroke-dasharray="4,3" d="M853.737,1501.53
		c23.81-11.91,35.232-53.609,43.616-76.66c7.839-21.56,19.409-42.34,30.399-62.12c10.636-19.149,14.524-41.75,26.434-60.8
		c5.828-9.33,15.689-16.02,21.146-25.109c3.51-5.851,5.684-14.94,10.573-19.83c44.444-44.45,100.864-70.29,153.314-101.771
		c9.3-5.569,13.96-14.76,22.47-21.149c10.5-7.87,53.04-32.42,55.51-42.29"/>
	<path fill="none" stroke="#008900" stroke-width="6.8564" stroke-linejoin="round" stroke-dasharray="4,3" d="M1005.5,1393.02
		c11.449-22.89,73.14-75.39,129.97-100.71"/>
	<path fill="none" stroke="#008900" stroke-width="6.8564" stroke-linejoin="round" stroke-dasharray="4,3" d="M432.367,1379.091
		c2.269-6.8,18.788-54.12,19.629-54.96c1.691-1.69,5.063,8.439,5.89,9.819c5.59,9.311,10.448,22.221,17.667,29.44
		c9.141,9.14,48.64-33.74,56.925-39.26c19.437-12.96,52.768,4.08,70.665-7.851c11.319-7.55,19.9-13.88,31.407-19.63
		c16.138-8.07,18.469-31.81,33.37-39.26c31.235-15.62,72.14-11.45,102.072-31.41c13.601-9.06,54.962-24.53,54.962-37.29
		c0-0.7-0.744-8.6,1.964-5.89c3.342,3.34,5.888,77.34,5.888,88.33c0,41.1-14.823,145.46-29.444,174.699
		c-5.961,11.931,5.726,39.431-3.925,49.08c-3.48,3.48-5.318,12.7-9.815,15.7c-2.639,1.76-9.814,3.76-9.814,5.89"/>
	<path fill="none" stroke="#008900" stroke-width="6.8564" stroke-linejoin="round" stroke-dasharray="4,3" d="M662.025,1579.37
		c0,0,8.055,3.69,9.055,4.69c6.329,6.33,19.175,31.37,32.141,20.27c6.159-5.279,13.393-18.21,13.393-18.489"/>
</svg>
