<?xml version="1.0" encoding="utf-8"?>
<!DOCTYPE svg PUBLIC "-//W3C//DTD SVG 1.1//EN" "http://www.w3.org/Graphics/SVG/1.1/DTD/svg11.dtd">
<!--
	Coquelicots · SVG
	Olivier Lange (https://github.com/olange)
	Drawn with InkPad (https://github.com/sprang/Inkpad)
-->
<svg version="1.1" id="coquelicots"
         xmlns="http://www.w3.org/2000/svg" xmlns:xlink="http://www.w3.org/1999/xlink" x="0px" y="0px"
	 width="973.155px" height="698.25px" viewBox="21.66 152.043 973.155 698.25"
	 enable-background="new 21.66 152.043 973.155 698.25" xml:space="preserve">

<g id="coquelicot2" xmlns:inkpad="http://taptrix.com/inkpad/svg_extensions">
	<path fill="none" stroke="#008900" stroke-width="4" stroke-linejoin="round" stroke-dasharray="4,3" d="M814.859,325.419
		c-0.808-4.166-3.875-5.404,5.604-21.205c3.375-5.624,10.906-8.607,16.049-12.036c18.23-12.152,36.558-35.041,43.333-55.369
		c6.257-18.771-17.804-29.355-26.48-40.926c-11.229-14.971-34.538-51.741-59.382-39.32c-7.283,3.642-7.351,16.112-13.642,19.259
		c-6.535,3.268-20.021-9.883-26.481-12.037c-8.251-2.75-12.764,7.223-20.863,7.223c-16.726,0-48.938-15.251-63.395-10.432
		c-20.426,6.808-36.213,33.909-45.739,52.962c-2.488,4.975-10.701,24.073-14.444,24.073"/>
	<path fill="none" stroke="#008900" stroke-width="4" stroke-linejoin="round" stroke-dasharray="4,3" d="M712.934,341.127
		c-17.094-17.095-23.208-36.661-28.888-59.382c-3.438-13.75,7.79-40.641-7.222-48.146c-21.984-10.991-26.301,8.024-40.925,8.024
		c-20.302,0-66.759-15.896-82.653,0c-10.402,10.401-8.226,24.476-20.864,32.9c-12.513,8.342-32.698,6.618-41.728,21.667
		c-7.08,11.801-20.414,35.503-16.852,49.752c1.708,6.834,8.085,16.668,5.617,24.074c-5.188,15.561-24.285,34.886-14.444,54.565
		c0.888,1.775,0.498,0.249,1.604,0.804c11.915,5.957,27.651,4.257,39.321,12.037c21.562,14.375,36.242,30.125,63.394,36.913
		c15.081,3.77,40.347,4.292,55.369,0c6.765-1.934,17.202-6.421,23.271-6.421"/>
	<path fill="none" stroke="#008900" stroke-width="4" stroke-linejoin="round" stroke-dasharray="4,3" d="M681.638,511.248
		c0,63.893-38.634,55.457-73.824,81.851c-7.884,5.912-20.928,24.095-28.087,26.48c-10.396,3.467-50.608-8.854-60.185-13.642
		c-8.761-4.38,0.278-26.172-1.604-33.703c-0.149-0.596-31.041-15.891-36.913-25.678c-7.391-12.317,5.71-28.764-1.605-38.519
		c-3.656-4.875-14.599-5.124-16.852-9.63c-3.279-6.558,10.432-16.529,15.247-18.456c13.989-5.596,28.466-0.085,42.529-3.21
		c12.441-2.765,16.971-6.017,29.583-9.171"/>
	<path fill="none" stroke="#008900" stroke-width="4" stroke-linejoin="round" stroke-dasharray="4,3" d="M607.01,595.506
		c0,6.477-2.905,20.669,0,26.481c5.531,11.061,21.818,3.527,30.493,6.419c15.921,5.308,56.35,26.154,72.221,20.864
		c6.716-2.238,34.943-38.737,45.74-44.135c14.317-7.158,31.177,9.669,45.74,4.814c13.857-4.619,11.047-31.202,12.84-32.099
		c9.951-4.977,43.516-0.55,47.344-12.036c4.646-13.937-11.587-37.363-8.826-40.123c4.645-4.645,12.149-12.613,8.024-20.864
		c-2.07-4.141-9.854-15.824-3.21-22.469c4.581-4.58,15.539,2.626,19.259-4.813c10.112-20.225-19.528-27.548-12.037-42.531
		c12.337-24.673,23.272-18.515,23.272-52.159c0-3.462,1.5-11.444,0-14.444c-8.979-17.955-51.6-18.938-56.172-28.086
		c-4.836-9.672-21.281-18.264-32.901-24.074c-8.723-4.361-20.819-23.694-32.901-17.653c-14.401,7.2,7.223,40.167,7.223,47.345"/>
	<path fill="none" stroke="#008900" stroke-width="4" stroke-linejoin="round" stroke-dasharray="4,3" d="M713.737,647.665
		c16.804,0,32.311-16.154,46.542-23.271c8.338-4.169,21.043-1.13,29.69-4.012c5.528-1.844,14.922-8.656,16.853-14.445"/>
	<path fill="none" stroke="#008900" stroke-width="4" stroke-linejoin="round" stroke-dasharray="4,3" d="M878.84,465.552
		c0-22.571,9.997-49.775,7.61-67.683"/>
	<path fill="none" stroke="#008900" stroke-width="4" stroke-linejoin="round" stroke-dasharray="4,3" d="M868.611,545.754
		c13.436-6.719,11.521-17.847,18.456-22.47c12.459-8.305,26.467-10.417,38.518-22.468c3.018-3.018,8.541-20.234,10.432-20.864
		c5.65-1.883,13.744-5.02,16.852-11.233c1.561-3.122,0.46-14.905,2.408-16.853c5.988-5.988,11.999-8.752,16.049-16.852
		c5.18-10.361-2.649-33.221-0.803-36.913c5.43-10.859,15.302-13.86,18.457-26.481c3.266-13.062-43.587-28.38-37.716-40.122
		c3.416-6.835,32.287,3.632,39.32-10.432c1.851-3.703,3.015-19.843,1.605-24.074c-2.227-6.679-7.933-10.247-11.235-16.851
		c-6.899-13.799-7.405-34.628-21.666-44.137c-6.188-4.124-36.327-9.26-37.715-12.035c-3.607-7.216,1.92-18.629-1.605-25.68
		c-3.805-7.608-12.569-8.288-16.049-15.247c-2.028-4.055-2.883-14.115-5.618-16.851c-2.151-2.152-9.162-0.97-12.036-2.408
		c-4.076-2.038-6.599-5.305-10.432-7.222c-11.874-5.937-32.575,17.653-36.913,17.653"/>
	<path fill="none" stroke="#008900" stroke-width="4" stroke-linejoin="round" stroke-dasharray="4,3" d="M724.15,436.118
		c-1.766,2.029-0.817,5.431-1.346,8.071c-0.335,1.676-1.345,3.277-1.345,5.045c0,7.369,3.363,9.396,3.363,0.672
		C724.823,448.279,725.049,435.086,724.15,436.118z"/>
	<path fill="none" stroke="#008900" stroke-width="4" stroke-linejoin="round" stroke-dasharray="4,3" d="M732.315,429.766
		c-3.135,3.874-0.525,22.746,4.65,24.471c13.214,4.405-2.115-17.961-2.657-19.045c-0.178-0.354-1.146-5.979-0.665-5.979
		c2.561,0,14.24,18.69,19.932,7.308c2.55-5.1-7.2-3.073-9.079-3.543C740.267,431.921,736.321,424.815,732.315,429.766z"/>
	<path fill="none" stroke="#008900" stroke-width="4" stroke-linejoin="round" stroke-dasharray="4,3" d="M738.073,424.341
		c0.238-0.291,0.733-0.176,1.107-0.222c3.499-0.438,19.709,5.602,19.709-2.436c0-0.223,0.1-0.468,0-0.665
		c-2.123-4.247-12.007-0.335-15.059,0.886C743.011,422.232,737.389,425.176,738.073,424.341z"/>
	<path fill="none" stroke="#008900" stroke-width="4" stroke-linejoin="round" stroke-dasharray="4,3" d="M732.869,421.129
		c1.287-1.228,19.413-6.498,13.841-12.068c-2.823-2.824-9.926,7.315-10.851,8.857C735.106,419.172,731.811,422.139,732.869,421.129z
		"/>
	<path fill="none" stroke="#008900" stroke-width="4" stroke-linejoin="round" stroke-dasharray="4,3" d="M731.43,416.811
		c-1.281-2.732,9.85-8.976,7.086-11.738c-2.303-2.303-4.309,3.048-4.872,3.987c-1.156,1.928-1.771,3.965-1.771,6.2
		C731.872,415.949,731.828,417.659,731.43,416.811z"/>
	<path fill="none" stroke="#008900" stroke-width="4" stroke-linejoin="round" stroke-dasharray="4,3" d="M728.661,418.25
		c-0.022-1.432,1.053-12.318-1.661-10.962C723.69,408.943,728.677,419.294,728.661,418.25z"/>
	<path fill="none" stroke="#008900" stroke-width="4" stroke-linejoin="round" stroke-dasharray="4,3" d="M725.007,420.686
		c-1.02-0.634-4.693-17.119-10.187-11.626C711.902,411.977,726.797,421.799,725.007,420.686z"/>
	<path fill="none" stroke="#008900" stroke-width="4" stroke-linejoin="round" stroke-dasharray="4,3" d="M717.478,422.459
		c-1.154-2.59-11.628-7.869-10.187-2.104C708.152,423.8,719.554,427.112,717.478,422.459z"/>
	<path fill="none" stroke="#008900" stroke-width="4" stroke-linejoin="round" stroke-dasharray="4,3" d="M717.367,429.545
		c-3.671-0.49-8.614-0.178-11.849,1.439c-1.323,0.662-1.83,5.396-0.664,5.979C707.613,438.343,718.459,429.69,717.367,429.545z"/>
	<path fill="none" stroke="#008900" stroke-width="4" stroke-linejoin="round" stroke-dasharray="4,3" d="M718.696,436.41
		c-2.952,0.586-8.986,4.811-10.077,8.083c-0.692,2.078,1.356,6.962,4.208,5.536c2.456-1.228,3.085-6.391,4.208-8.637
		C717.5,440.464,720.381,436.075,718.696,436.41z"/>
	<path fill="none" stroke="#000000" stroke-width="1.5" stroke-linejoin="round" stroke-dasharray="4,4" d="M816.172,580.693
		c25.482,43.332,78.381,77.213,103.251,87c2.74,1.078,21.684-7.585,22.535-8.53c1.824-2.02-16.52-7.989-48.752-29.179
		c-9.133-6.004-37.408-30.642-55.811-53.021C836.826,576.269,815.495,579.541,816.172,580.693z"/>
	<path fill="none" stroke="#000000" stroke-width="1.5" stroke-linejoin="round" stroke-dasharray="4,4" d="M757.55,413.02
		c9.109-12.146,21.856-17.248,32.255-27.646c3.854-3.854,7.948-7.548,11.82-11.42c0.652-0.651,4.042-7.176,5.208-6.01
		c4.153,4.153-3.806,5.669-3.806,7.212"/>
	<path fill="none" stroke="#000000" stroke-width="1.5" stroke-linejoin="round" stroke-dasharray="4,4" d="M753.143,404.406
		c6.706-16.766,15.451-32.218,22.037-48.682c0.765-1.91,5.645-14.809,8.815-13.224c4.362,2.182-4.609,7.788-6.764,8.591"/>
	<path fill="none" stroke="#000000" stroke-width="1.5" stroke-linejoin="round" stroke-dasharray="4,4" d="M706.664,414.222
		c-3.038,0-8.676-5.391-11.019-7.212c-7.206-5.605-15.162-10.387-23.239-14.425c-3.249-1.625-9.8,0.023-11.82-3.005
		c-0.434-0.651-1.018-1.471-1.202-2.204c-1.288-5.153,5.009-0.793,5.009,3.606"/>
	<path fill="none" stroke="#000000" stroke-width="1.5" stroke-linejoin="round" stroke-dasharray="4,4" d="M711.175,409.944
		c-4.879,0-27.673-36.742-30.451-45.076c-1.076-3.231,1.896-2.712,3.406-1.202c2.923,2.923-1.293,5.7,0.217,8.722"/>
	<path fill="none" stroke="#000000" stroke-width="1.5" stroke-linejoin="round" stroke-dasharray="4,4" d="M715.567,403.596
		c-1.29-1.291-1.36-5.873-2.404-7.613c-4.622-7.704-10.633-13.842-16.228-20.835c-0.588-0.735-4.028-9.416-2.003-9.416
		c3.715,0,6.137,4.862,2.417,6.722c-0.382,0.191-1.487,0.501-0.886,1.74"/>
	<path fill="none" stroke="#000000" stroke-width="1.5" stroke-linejoin="round" stroke-dasharray="4,4" d="M722.09,404.005
		c-0.494,0-7.103-18.74-8.414-21.034c-4.31-7.543-19.721-18.167-16.227-28.649c2.009-6.029,6.648,0.963,1.202,6.411"/>
	<path fill="none" stroke="#000000" stroke-width="1.5" stroke-linejoin="round" stroke-dasharray="4,4" d="M730.905,401.44
		c-0.828,0.828-0.602-0.088-0.602-0.802c0-4.918-0.668-9.419-1.202-14.225c-0.622-5.596-21.828-32.246-15.756-33.608
		c3.324-0.746-0.014,5.617,0.868,7.354"/>
	<path fill="none" stroke="#000000" stroke-width="1.5" stroke-linejoin="round" stroke-dasharray="4,4" d="M735.085,397.372
		c-4.551-13.651-4.823-27.674-11.42-40.869c-1.053-2.106-5.233-12.38-2.252-11.934c3.029,0.453-0.881,3.511-0.274,5.391"/>
	<path fill="none" stroke="#000000" stroke-width="1.5" stroke-linejoin="round" stroke-dasharray="4,4" d="M741.924,397.96
		c-1.303,0,0.227-7.144,0.4-9.416c0.383-4.977-0.399-11.214-1.603-16.026c-2.3-9.199-7.02-17.957-9.617-27.045
		c-0.323-1.135,0.78-3.719,2.204-3.006c2.287,1.144-1.886,5.692-0.982,6.596"/>
	<path fill="none" stroke="#000000" stroke-width="1.5" stroke-linejoin="round" stroke-dasharray="4,4" d="M749.937,455.092
		c-2.477,0,9.729,16.624,12.021,20.635c2.973,5.204,1.743,12.101,3.806,16.227c1.179,2.357,6.44,1.09,5.409-2.003
		c-0.862-2.586-5.008-4.409-5.008-6.61"/>
	<path fill="none" stroke="#000000" stroke-width="1.5" stroke-linejoin="round" stroke-dasharray="4,4" d="M743.927,461.903
		c0,11.627,10.193,18.369,14.225,28.448c3.442,8.605-2.204,11.067-2.204-4.408"/>
	<path fill="none" stroke="#000000" stroke-width="1.5" stroke-linejoin="round" stroke-dasharray="4,4" d="M736.515,465.51
		c-5.723,0,6.639,36.921,1.603,44.475c-7.176,10.766-3.7-2.562,0.601-9.015"/>
	<path fill="none" stroke="#000000" stroke-width="1.5" stroke-linejoin="round" stroke-dasharray="4,4" d="M699.485,431.953
		c-6.197,3.1-32.424-1.618-40.269-2.403c-3.704-0.37-9.309,2.093-11.321,0.532c-4.046-3.137,4.599-2.751,5.584,0.082"/>
	<path fill="none" stroke="#000000" stroke-width="1.5" stroke-linejoin="round" stroke-dasharray="4,4" d="M716.481,457.896
		c-3.319,1.659-22.525,30.796-25.443,35.66c-1.434,2.387-6.65,14.314-11.02,13.222c-3.668-0.917,2.894-4.808,4.408-4.808"/>
	<path fill="none" stroke="#000000" stroke-width="1.5" stroke-linejoin="round" stroke-dasharray="4,4" d="M709.269,460.301
		c-5.235,1.745-21.411,22.413-26.444,27.445c-0.037,0.037-9.016,6.846-9.016,5.61c0-2.97,5.349-4.007,7.412-4.007"/>
	<path fill="none" stroke="#000000" stroke-width="1.5" stroke-linejoin="round" stroke-dasharray="4,4" d="M704.06,460.301
		c-0.468-0.701-4.796,6.084-6.211,7.812c-4.249,5.194-10.77,9.618-16.026,13.824c-3.015,2.411-21.92,19.703-26.044,17.229
		c-9.607-5.765,8.856-5.609,10.617-5.609"/>
	<path fill="none" stroke="#000000" stroke-width="1.5" stroke-linejoin="round" stroke-dasharray="4,4" d="M700.831,460.1
		c0-0.652-1.252-0.481-1.602-0.201c-4.946,3.957-10.222,7.688-15.227,11.62c-1.053,0.827-19.255,15.169-19.82,15.302
		c-5.187,1.223,1.638-4.011,4.541-3.435"/>
	<path fill="none" stroke="#000000" stroke-width="1.5" stroke-linejoin="round" stroke-dasharray="4,4" d="M699.853,455.293
		c-9.32,4.659-16.481,10.07-24.041,17.629c-2.681,2.681-4.556,3.104-7.812,4.407c-1.377,0.551-5.89,0.602-4.407,0.602"/>
	<path fill="none" stroke="#000000" stroke-width="1.5" stroke-linejoin="round" stroke-dasharray="4,4" d="M746.95,445.795
		c-0.418,0.835,10.761,6.631,12.757,7.537c10.269,4.668,20.974,9.261,31.457,13.192c3.79,1.421,15.976-2.662,8.988-4.059
		c-2.774-0.556-5.099,4.408-6.668,3.624"/>
	<path fill="none" stroke="#000000" stroke-width="1.5" stroke-linejoin="round" stroke-dasharray="4,4" d="M760.432,442.894
		c2.594,3.89,10.735,3.136,14.642,3.625c7.831,0.978,24.846,9.829,32.906,5.798c3.697-1.848-0.02-4.959-2.898-4.639
		c-3.292,0.366-5.146,4.494-8.263,4.494"/>
	<path fill="none" stroke="#000000" stroke-width="1.5" stroke-linejoin="round" stroke-dasharray="4,4" d="M762.171,434.052
		c0.406,0.404,1.193-1.376,1.74-1.596c2.063-0.825,6.304-1.034,8.553-1.159c6.984-0.389,14.438,3.982,21.601,4.493
		c7.026,0.503,4.925-4.696,6.668-4.349c10.4,2.08-1.52,7.329-2.899,3.189"/>
	<path fill="none" stroke="#000000" stroke-width="1.5" stroke-linejoin="round" stroke-dasharray="4,4" d="M763.476,426.513
		c6.03-9.046,30.457-3.445,39.286-2.464c1.439,0.16,2.769,0.102,4.204,0c0.965-0.069,6.413,0.114,6.668-1.16
		c0.928-4.639-4.059-3-4.059,0.29"/>
	<path fill="none" stroke="#000000" stroke-width="1.5" stroke-linejoin="round" stroke-dasharray="4,4" d="M763.911,423.904
		c3.255-2.17,6.463-4.067,10.146-5.509c2.706-1.06,5.814-1.437,8.698-1.739c2.536-0.267,5.007,0.567,7.539,0.145
		c1.411-0.235,27.103-2.837,24.064-7.394c-1.653-2.479-4.204,3.436-4.204,4.494"/>
	<path fill="none" stroke="#000000" stroke-width="1.5" stroke-linejoin="round" stroke-dasharray="4,4" d="M765.216,420.135
		c-0.57-1.142,5.122-4.497,5.943-4.93c7.435-3.913,16.856-6.261,23.774-10.872c2.766-1.844,20.552-18.188,18.556-22.18
		c-1.478-2.954-4.838,3.28-2.174,5.943"/>
	<path fill="none" stroke="#000000" stroke-width="1.5" stroke-linejoin="round" stroke-dasharray="4,4" d="M748.834,452.607
		c0-1.214,7.327,4.168,13.627,9.568c3.997,3.426,14.677,21.437,16.961,20.295c4.304-2.152-3.824-3.479-5.364-3.479"/>
	<path fill="none" stroke="#000000" stroke-width="1.5" stroke-linejoin="round" stroke-dasharray="4,4" d="M723.465,462.61
		c-0.41,0-2.187,8.049-2.608,9.133c-2.622,6.743-4.538,13.972-9.134,19.716c-2.581,3.226-17.686,18.409-9.567,23.05
		c8.462,4.835-2.361-8.492-1.015-5.799"/>
	<path fill="none" stroke="#000000" stroke-width="1.5" stroke-linejoin="round" stroke-dasharray="4,4" d="M704.185,424.484
		c-0.353,0.176-9.848-2.506-11.307-3.479c-4.702-3.135-21.304-6.667-27.688-8.263c-2.396-0.599-9.728-0.174-10.872-2.465
		c-0.775-1.55,3.688-1.69,4.639,1.16"/>
	<path fill="none" stroke="#000000" stroke-width="1.5" stroke-linejoin="round" stroke-dasharray="4,4" d="M694.237,443.452
		c-12.65-4.217-36.539,5.54-47.467,12.398c-1.956,1.228-3.018,3.612-4.71,4.709c-14.886,9.656-7.098-14.115,2.321-2.364"/>
	<path fill="none" stroke="#000000" stroke-width="1.5" stroke-linejoin="round" stroke-dasharray="4,4" d="M694.33,452.353
		c-8.908,1.485-17.115,8.968-26.303,9.887c-1.273,0.127-20.432,1.111-18.842,4.29c3.174,6.347,7.138-3.171,7.361-3.059"/>
	<path fill="none" stroke="#000000" stroke-width="1.5" stroke-linejoin="round" stroke-dasharray="4,4" d="M747.426,399.941
		c0-17.719-1.51-28.288,9.681-42.276c2.73-3.414,7.895-13.098,12.88-9.671c2.257,1.552-3.444,5.988-5.82,6.492
		c-1.749,0.371-5.323-0.64-4.135-0.64"/>
	<path fill="none" stroke="#000000" stroke-width="1.5" stroke-linejoin="round" stroke-dasharray="4,4" d="M731.198,462.077
		c-0.303-0.15-0.45,8.209-0.721,9.502c-1.017,4.882-3.771,10.301-5.902,14.83c-2.196,4.667-16.526,19.124-12.958,24.478
		c2.815,4.224-0.145-5.497-0.145-2.16"/>
	<path fill="none" stroke="#000000" stroke-width="1.5" stroke-linejoin="round" stroke-dasharray="4,4" d="M762.01,440.912
		c9.256-3.086,16.354,1.147,24.62-2.159c2.189-0.876,13.062,2.174,8.783,3.599c-2.616,0.872-2.648-2.879-3.024-2.879"/>
</g>

<g id="coquelicot1">
	<path fill="none" stroke="#008900" stroke-linecap="round" stroke-linejoin="round" stroke-dasharray="4,3" d="M22.16,814.732
		c10.93-11.396,20.005-24.687,26.809-38.296c5.601-11.202,5.941-28.764,8.459-41.358c1.96-9.8,9.452-19.06,11.28-28.197
		c6.803-34.017,33.264-70.325,58.225-93.521c7.614-7.075,15.781-11.394,24.961-15.984c30.064-15.031,118.84-27.093,157.065-20.623
		c10.06,1.702,48.413,8.453,55.834,12.164c9.23,4.614,42.327,13.658,47.468,18.8c2.503,2.503,8.98,8.163,12.689,9.398
		c8.854,2.952,20.104,10.085,27.618,17.299c6.147,5.901-10.573,4.181-13.278,7.868c-1.664,2.271,3.32,5.581,1.639,7.262
		c-1.811,1.812-6.057,5.786-4.589,8.722c1.102,2.203,11.753,2.823,11.009,7.286c-1.365,8.193,16.489,12.77,10.29,19.217
		c-3.782,3.934-6.818,6.199-10.538,12.15c-2.809,4.493-12.172,1.854-16.041,7.612c-3.435,5.111-6.565,4.452-9.696,7.912
		c-3.876,4.284-7.694,11.236-11.47,13.123c-5.541,2.771-16.788-1.409-21.486,3.289c-6.577,6.577-0.173,24.753-10.744,30.038
		c-4.633,2.316-8.995,5.449-13.813,6.577c-14.008,3.28-14.538-4.938-20.636-1.757c-6.976,3.64-8.201-2.73-10.604,7.953
		c-2.387,10.605,1.919,37.809-24.392,50.904c-11.694,5.82-33.997-4.324-48.253,2.121c-4.825,2.181-5.081,6.146-8.208,8.368
		c-3.379,2.402-5.697-0.978-12.918,4.944c-7.79,6.389-12.512-12.309-22.089-7.521c-6.023,3.012,0.986,14.621-12.689,18.799
		c-9.085,2.776-17.264-6.454-22.089-11.278c-0.063-0.064-7.79,6.841-12.277,6.595c-24.413-1.337-16.548-21.128-24.811-6.795
		c-4.5,7.807-16.232,3.747-21.189-1.21c-1.088-1.088-1.615-4.436-2.82-5.641c-0.991-0.99-11.54,6.334-13.088,6.851
		c-17.695,5.897-41.682-0.144-50.895-14.434c-2.92,2.056-13.538,9.967-21.247,2.445C26.808,827.508,22.892,824.242,22.16,814.732z"
		/>
	<path fill="none" stroke="#008900" stroke-linecap="round" stroke-linejoin="round" stroke-dasharray="4,3" d="M178.472,593.415
		c-20.916,25.933-33.87,50.902-39.344,83.745c-1.944,11.668-3.036,24.145-2.248,35.973c0.558,8.362,2.731,16.393,3.372,24.729
		c1.335,17.355,4.36,29.688,20.796,32.036c6.483,0.927,12.712,3.993,19.11,5.059c11.382,1.897,15.421-9.15,31.475-1.123
		c12.754,6.377,54.9,15.144,67.446,6.182c20.662-14.759,14.274-32.259,19.109-37.095c0.963-0.964,5.037,10.637,5.62,11.803
		c1.899,3.8,17.095-1.233,20.796,0c8.076,2.691,4.865,10.117,15.737,10.117"/>
	<path fill="none" stroke="#008900" stroke-linecap="round" stroke-linejoin="round" stroke-dasharray="4,3" d="M246.29,783.128
		c-4.737,18.493-11.65,17.166-21.426,17.591c-4.962,12.404-23.676,21.58-42.175,9.247c-2.508-1.672-13.751-17.025-17.366-15.787
		c-0.051,0.017,12.761,22.823,1.804,19.17c-5.611-1.87-5.446-5.477-10.575-8.04c-1.364-0.682-6.399,0.346-7.307-0.562
		c-1.801-1.802-0.852-8.176-1.686-10.679c-1.849-5.548-6.802-9.899-7.869-16.3c-6.173-37.037-17.929-76.214-3.934-113.534
		c11.108-29.621,26.66-50.476,42.833-70.787"/>
	<path fill="none" stroke="#008900" stroke-linecap="round" stroke-linejoin="round" stroke-dasharray="4,3" d="M212.81,583.268
		c36.584-1.667,65.757-0.821,100.924,10.902c18.112,6.036,33.417,17.27,51.393,23.262c10.987,3.662,22.339,5.282,32.459,8.655
		c13.544,4.515,20.253,27.746,38.409,31.377"/>
	<path fill="none" stroke="#008900" stroke-linecap="round" stroke-linejoin="round" stroke-dasharray="4,3" d="M308.866,733.742
		c-34.614-14.092-34.508-83.194-51.393-100.081c-10.252-10.252-21.056-20.091-32.459-29.213
		c-10.251-8.201-17.597-9.094-28.672-13.523"/>
</g>
</svg>
