<?xml version="1.0" encoding="utf-8"?>
<!DOCTYPE svg PUBLIC "-//W3C//DTD SVG 1.1//EN" "http://www.w3.org/Graphics/SVG/1.1/DTD/svg11.dtd">
<!--
	Coquelicot · SVG
	Olivier Lange (https://github.com/olange)
	Drawn with InkPad (https://github.com/sprang/Inkpad)
-->
<svg version="1.1" id="coquelicot" xmlns="http://www.w3.org/2000/svg"
	xmlns:xlink="http://www.w3.org/1999/xlink" x="0px" y="0px" width="436.791px" height="274.828px"
	viewBox="0 0 436.791 274.828" enable-background="new 0 0 436.791 274.828" xml:space="preserve">
	<path fill="none" stroke="#008900" stroke-linecap="round" stroke-linejoin="round" stroke-dasharray="4,3" d="M0,239.767
		c10.93-11.396,20.006-24.688,26.81-38.297c5.601-11.201,5.94-28.764,8.459-41.357c1.961-9.801,9.452-19.061,11.28-28.197
		c6.803-34.018,33.264-70.324,58.225-93.521c7.614-7.074,15.781-11.393,24.961-15.982C159.799,7.38,248.574-4.683,286.8,1.788
		c10.06,1.701,48.411,8.451,55.834,12.164c9.229,4.613,42.325,13.656,47.468,18.799c2.503,2.504,8.979,8.164,12.688,9.398
		c8.855,2.951,20.104,10.084,27.618,17.299c6.148,5.9-10.573,4.182-13.278,7.867c-1.663,2.271,3.32,5.582,1.641,7.264
		c-1.812,1.811-6.059,5.785-4.589,8.721c1.101,2.203,11.753,2.824,11.009,7.287c-1.366,8.191,16.489,12.77,10.29,19.217
		c-3.783,3.934-6.819,6.199-10.538,12.15c-2.811,4.492-12.172,1.854-16.041,7.611c-3.435,5.111-6.566,4.451-9.697,7.912
		c-3.876,4.283-7.692,11.236-11.469,13.123c-5.541,2.771-16.789-1.41-21.487,3.289c-6.577,6.576-0.173,24.752-10.744,30.037
		c-4.633,2.316-8.993,5.449-13.812,6.578c-14.008,3.279-14.538-4.939-20.636-1.758c-6.978,3.641-8.201-2.73-10.605,7.953
		c-2.386,10.605,1.919,37.809-24.391,50.904c-11.694,5.82-33.997-4.324-48.253,2.121c-4.825,2.18-5.081,6.146-8.208,8.367
		c-3.379,2.402-5.697-0.979-12.918,4.945c-7.79,6.389-12.512-12.311-22.089-7.521c-6.023,3.012,0.984,14.621-12.689,18.799
		c-9.085,2.775-17.264-6.455-22.089-11.277c-0.062-0.064-7.79,6.84-12.277,6.594c-24.411-1.336-16.548-21.127-24.811-6.795
		c-4.5,7.807-16.232,3.748-21.189-1.209c-1.088-1.088-1.613-4.438-2.818-5.643c-0.991-0.988-11.54,6.334-13.088,6.852
		c-17.695,5.896-41.683-0.145-50.896-14.434c-2.92,2.057-13.538,9.967-21.247,2.445C4.649,252.542,0.733,249.276,0,239.767z"/>
	<path fill="none" stroke="#008900" stroke-linecap="round" stroke-linejoin="round" stroke-dasharray="4,3" d="M156.313,18.448
		c-20.916,25.934-33.87,50.902-39.344,83.746c-1.944,11.668-3.036,24.145-2.248,35.973c0.558,8.361,2.729,16.393,3.372,24.729
		c1.335,17.355,4.358,29.689,20.796,32.037c6.481,0.926,12.712,3.992,19.11,5.059c11.382,1.896,15.421-9.15,31.475-1.123
		c12.754,6.377,54.9,15.145,67.446,6.182c20.66-14.758,14.272-32.258,19.107-37.094c0.963-0.965,5.038,10.637,5.621,11.803
		c1.897,3.799,17.094-1.234,20.795,0c8.077,2.689,4.866,10.117,15.738,10.117"/>
	<path fill="none" stroke="#008900" stroke-linecap="round" stroke-linejoin="round" stroke-dasharray="4,3" d="M224.131,208.163
		c-4.737,18.492-11.65,17.166-21.428,17.59c-4.962,12.404-23.676,21.58-42.175,9.248c-2.508-1.672-13.751-17.025-17.366-15.787
		c-0.051,0.016,12.763,22.822,1.806,19.17c-5.611-1.871-5.446-5.479-10.575-8.041c-1.364-0.682-6.399,0.346-7.307-0.562
		c-1.803-1.801-0.854-8.176-1.688-10.678c-1.849-5.549-6.802-9.898-7.869-16.301c-6.173-37.037-17.929-76.213-3.934-113.533
		c11.106-29.621,26.66-50.477,42.833-70.787"/>
	<path fill="none" stroke="#008900" stroke-linecap="round" stroke-linejoin="round" stroke-dasharray="4,3" d="M190.651,8.302
		c36.584-1.666,65.757-0.82,100.924,10.902c18.113,6.035,33.417,17.27,51.395,23.262c10.985,3.662,22.339,5.283,32.459,8.656
		c13.544,4.514,20.253,27.746,38.407,31.377"/>
	<path fill="none" stroke="#008900" stroke-linecap="round" stroke-linejoin="round" stroke-dasharray="4,3" d="M286.705,158.776
		c-34.612-14.092-34.508-83.193-51.393-100.082c-10.252-10.252-21.056-20.09-32.459-29.213c-10.251-8.201-17.597-9.094-28.672-13.521
		"/>
</svg>
