<?xml version="1.0" encoding="utf-8"?>
<!DOCTYPE svg PUBLIC "-//W3C//DTD SVG 1.1//EN" "http://www.w3.org/Graphics/SVG/1.1/DTD/svg11.dtd">
<!--
	Figure tombante · SVG
	D'après «L'homme qui chavire» de Alberto Giacometti (http://www.panoramadelart.com/alberto-giacometti-l-homme-qui-chavire)
	Olivier Lange (https://github.com/olange)
	Drawn with InkPad (https://github.com/sprang/Inkpad)
-->
<svg version="1.1" id="figure-tombante" xmlns="http://www.w3.org/2000/svg"
		xmlns:xlink="http://www.w3.org/1999/xlink" x="0px" y="0px" width="1088.42px" height="1998.939px"
		viewBox="0 0 1088.42 1998.939" enable-background="new 0 0 1088.42 1998.939"
		xml:space="preserve">
	<path fill="none" stroke="#008900" stroke-width="4" stroke-linejoin="round" stroke-dasharray="4,3" d="M0,444.427
		c56.397,0,32.197-39.86,38.88-43.2c0.339-0.17,161.162-19.661,172.8-21.602c126.046-21.008,167.369-55.604,272.16-107.999
		c28.999-14.5,56.05-48.572,86.398-56.16c16.814-4.203,34.981-4.425,51.84-8.641c3.878-0.97,15.919-10.001,17.28-8.64
		c4.836,4.836-0.904,46.417,0,51.84c9.722,58.331,33.206,121.219,51.84,177.12c33.591,100.764,128.62,171.122,151.2,276.479
		c18.729,87.42-2.92,179.78,12.96,259.2c2.062,10.312,6.9,21.65,4.32,34.562c-16.562,82.81-38.88,155.738-38.88,241.92
		c0,53.42-14.08,130.84,4.318,181.438c18.062,49.67,62.82,79.102,99.36,112.32c57.83,52.57,119.33,174.93,138.24,250.56
		c7.62,30.461,12.14,72.182,8.64,103.682c-3.66,32.97-29.57,103.68-30.24,103.68"/>
	<path fill="none" stroke="#008900" stroke-width="4" stroke-linejoin="round" stroke-dasharray="4,3" d="M649.065,136.958
		c-12.685-9.516-53.16-2.708-58.842-14.071c-3.479-6.959,14.484-45.169,17.909-53.726c1.562-3.905,54.29-63.2,55.543-63.827
		c15.054-7.526,41.344-7.413,54.465,2.428c38.97,29.229,46.91,32.396,15.35,63.958c-12.34,12.345-20.28,27.384-35.815,37.097
		c-30.297,18.936-69.015,34.729-46.087,80.584c38.437,57.654,99.873,116.922,145.572,169.159
		c24.971,28.53,43.142,62.797,68.512,91.336c28.47,32.026,61.538,61.972,83.72,98.946c19.96,33.262,18.188,84.607,22.83,121.779
		c7.909,63.255,8.84,182.812-11.41,243.564c-8.84,26.52-15.22,51.529-15.22,79.92c0,5.6,0,40.75,0,22.83"/>
</svg>
